<svg xmlns="http://www.w3.org/2000/svg" viewBox="0 0 143 143"><defs><style>.cls-1{fill:#fff;}</style></defs><g id="Ebene_4" data-name="Ebene 4"><g id="Ebene_3" data-name="Ebene 3"><g id="Ebene_3-2" data-name="Ebene 3"><path class="cls-1" d="M318.64,312.5a71.5,71.5,0,1,0,71.5,71.5,71.5,71.5,0,0,0-71.5-71.5Z" transform="translate(-247.14 -312.5)"/></g><g id="Ebene_2" data-name="Ebene 2"><path class="cls-1" d="M351.13,379.6a9.75,9.75,0,0,0-3.45-1.45,17.62,17.62,0,0,0-3.7-.4h-1.51a20.43,20.43,0,0,0-2.2.2l-4.5,25.41a22.66,22.66,0,0,0,4.5.3,16,16,0,0,0,4.91-.8,12.8,12.8,0,0,0,4.6-2.7,14.29,14.29,0,0,0,3.45-5,19.45,19.45,0,0,0,1.35-7.8,10.73,10.73,0,0,0-1-4.8A7.57,7.57,0,0,0,351.13,379.6Z" transform="translate(-247.14 -312.5)"/><path class="cls-1" d="M318.64,312.5a71.5,71.5,0,1,0,71.5,71.5,71.5,71.5,0,0,0-71.5-71.5Zm-5.18,90.67a28.52,28.52,0,0,1-9.75,5.6,41.81,41.81,0,0,1-14,2.1,51.15,51.15,0,0,1-18.5-3.5,31.37,31.37,0,0,1,1.45-6.05q1.05-3.06,2.55-6.36a75.42,75.42,0,0,0,7.75,2.4,30.88,30.88,0,0,0,7.65,1,22.33,22.33,0,0,0,5.76-.7,13.55,13.55,0,0,0,4.6-2.1,10.1,10.1,0,0,0,3-3.4,9.63,9.63,0,0,0,1.1-4.7,6.61,6.61,0,0,0-.9-3.5,10.81,10.81,0,0,0-2.3-2.7,20.12,20.12,0,0,0-3.23-2.26q-1.89-1-3.8-2.25a45.49,45.49,0,0,1-10.2-7.85,13.61,13.61,0,0,1-3.75-9.55,23.52,23.52,0,0,1,1.9-9.65,19.49,19.49,0,0,1,5.4-7.15,24.84,24.84,0,0,1,8.46-4.46,37.27,37.27,0,0,1,11.15-1.55,49.55,49.55,0,0,1,9.5.8,52.11,52.11,0,0,1,8.41,2.5,34,34,0,0,1-1.4,5.71,27.06,27.06,0,0,1-2.81,5.9,38.87,38.87,0,0,0-6-2.3,28.76,28.76,0,0,0-7.95-.9,27.73,27.73,0,0,0-3.85.3,11.54,11.54,0,0,0-3.7,1.15,7.88,7.88,0,0,0-2.75,2.35,6.45,6.45,0,0,0-1.1,3.9,7.17,7.17,0,0,0,2.45,5.6,36.67,36.67,0,0,0,6.25,4.4q3.4,1.91,6.3,3.81a31,31,0,0,1,5.1,4.1,16.22,16.22,0,0,1,3.45,4.95,14.92,14.92,0,0,1,1.25,6.35,26.13,26.13,0,0,1-1.85,9.8,21.47,21.47,0,0,1-5.64,8.21Zm54.27-5.12a26.11,26.11,0,0,1-6.25,9.36,28.56,28.56,0,0,1-10,6.15,38,38,0,0,1-13.41,2.2c-1.06,0-1.93,0-2.6-.05s-1.3-.08-1.9-.15l-4,23.11c-1.33.2-2.6.33-3.8.4s-2.37.1-3.5.1-2.12,0-3.35-.1-2.55-.2-3.95-.4l12.67-72.13c1.47-.13,2.83-.26,4.1-.4s2.52-.25,3.75-.35,2.47-.16,3.7-.2,2.59,0,4.06,0a54.25,54.25,0,0,1,9,.8,25.58,25.58,0,0,1,8.6,3.06,18.25,18.25,0,0,1,6.45,6.35q2.55,4.09,2.55,10.6A31,31,0,0,1,367.73,398.05Z" transform="translate(-247.14 -312.5)"/></g></g></g><g id="Ebene_2-2" data-name="Ebene 2"><path d="M351.13,379.6a9.63,9.63,0,0,0-3.45-1.45,17.74,17.74,0,0,0-3.7-.4h-1.5a19.31,19.31,0,0,0-2.2.2l-4.5,25.41a22.82,22.82,0,0,0,4.5.3,16.14,16.14,0,0,0,4.9-.8,12.66,12.66,0,0,0,4.6-2.7,14.38,14.38,0,0,0,3.45-5,19.56,19.56,0,0,0,1.35-7.8,10.63,10.63,0,0,0-.95-4.8A7.44,7.44,0,0,0,351.13,379.6Z" transform="translate(-247.14 -312.5)"/><path d="M318.64,312.5a71.5,71.5,0,1,0,71.5,71.5A71.5,71.5,0,0,0,318.64,312.5Zm-5.17,90.67a28.57,28.57,0,0,1-9.76,5.6,41.81,41.81,0,0,1-14,2.1,51.27,51.27,0,0,1-18.51-3.5,31.45,31.45,0,0,1,1.45-6.05q1.05-3.06,2.55-6.36a74.09,74.09,0,0,0,7.76,2.4,30.93,30.93,0,0,0,7.65,1,22.32,22.32,0,0,0,5.75-.7,13.59,13.59,0,0,0,4.6-2.1,10.09,10.09,0,0,0,3.05-3.4,9.52,9.52,0,0,0,1.1-4.7,6.68,6.68,0,0,0-.9-3.5,10.86,10.86,0,0,0-2.3-2.7,19.41,19.41,0,0,0-3.3-2.25c-1.27-.7-2.53-1.45-3.8-2.25a45.07,45.07,0,0,1-10.15-7.86,13.59,13.59,0,0,1-3.75-9.55,23.34,23.34,0,0,1,1.9-9.65,19.24,19.24,0,0,1,5.4-7.15,24.58,24.58,0,0,1,8.45-4.46,37.37,37.37,0,0,1,11.15-1.55,49.45,49.45,0,0,1,9.51.8,52.44,52.44,0,0,1,8.4,2.5,33.59,33.59,0,0,1-1.4,5.71,28,28,0,0,1-2.8,5.9,39.93,39.93,0,0,0-5.95-2.3,28.93,28.93,0,0,0-8-.9,26.7,26.7,0,0,0-3.85.3,11.7,11.7,0,0,0-3.7,1.15,7.8,7.8,0,0,0-2.75,2.35,6.46,6.46,0,0,0-1.1,3.9,7.19,7.19,0,0,0,2.45,5.6,37.32,37.32,0,0,0,6.25,4.4q3.4,1.91,6.31,3.81a31.65,31.65,0,0,1,5.1,4.1,16.85,16.85,0,0,1,3.45,4.95,15.24,15.24,0,0,1,1.25,6.35,26.58,26.58,0,0,1-1.85,9.8A21.9,21.9,0,0,1,313.47,403.17Zm54.27-5.12a26.5,26.5,0,0,1-6.25,9.36,28.74,28.74,0,0,1-10,6.15,38.08,38.08,0,0,1-13.4,2.2c-1.07,0-1.94,0-2.6-.05s-1.3-.08-1.9-.15l-4,23.11c-1.34.2-2.61.33-3.81.4s-2.36.1-3.5.1-2.11,0-3.35-.1-2.55-.2-3.95-.4l12.7-72.13c1.47-.13,2.84-.26,4.11-.4s2.51-.25,3.75-.35,2.46-.16,3.7-.2,2.58,0,4,0a54,54,0,0,1,9,.8,25.62,25.62,0,0,1,8.61,3.06,18.3,18.3,0,0,1,6.45,6.35q2.55,4.1,2.55,10.6A31.41,31.41,0,0,1,367.74,398.05Z" transform="translate(-247.14 -312.5)"/></g></svg>